<mxfile host="app.diagrams.net" agent="Mozilla/5.0 (Windows NT 10.0; Win64; x64) AppleWebKit/537.36 (KHTML, like Gecko) Chrome/139.0.0.0 Safari/537.36" version="28.1.1">
  <diagram name="Page-1" id="OKO1WNVuiHA24uirFd6W">
    <mxGraphModel dx="1042" dy="546" grid="0" gridSize="10" guides="1" tooltips="1" connect="1" arrows="1" fold="1" page="1" pageScale="1" pageWidth="4681" pageHeight="3300" background="#E8E8E8" math="0" shadow="0">
      <root>
        <mxCell id="0" />
        <mxCell id="1" parent="0" />
        <mxCell id="Pjm44x9L5e39kdIj_LCA-42" value="" style="rounded=0;whiteSpace=wrap;html=1;fillColor=none;strokeColor=light-dark(#00FF00,#008F00);strokeWidth=3;" parent="1" vertex="1">
          <mxGeometry x="685" y="1598" width="144" height="41" as="geometry" />
        </mxCell>
        <mxCell id="Pjm44x9L5e39kdIj_LCA-7" value="" style="group" parent="1" vertex="1" connectable="0">
          <mxGeometry x="110" y="1598" width="144" height="41" as="geometry" />
        </mxCell>
        <mxCell id="Pjm44x9L5e39kdIj_LCA-1" value="" style="rounded=0;whiteSpace=wrap;html=1;fillColor=none;strokeColor=light-dark(#287ce0, #008F00);strokeWidth=3;" parent="Pjm44x9L5e39kdIj_LCA-7" vertex="1">
          <mxGeometry width="144" height="41" as="geometry" />
        </mxCell>
        <mxCell id="Pjm44x9L5e39kdIj_LCA-3" value="&lt;h4&gt;&lt;font style=&quot;color: rgb(51, 51, 51);&quot;&gt;&lt;b&gt;Process Efficiency&lt;/b&gt;&lt;/font&gt;&lt;/h4&gt;" style="text;html=1;align=center;verticalAlign=middle;whiteSpace=wrap;rounded=0;" parent="Pjm44x9L5e39kdIj_LCA-7" vertex="1">
          <mxGeometry x="10" y="5.5" width="125.5" height="30" as="geometry" />
        </mxCell>
        <mxCell id="Pjm44x9L5e39kdIj_LCA-8" value="" style="group" parent="1" vertex="1" connectable="0">
          <mxGeometry x="110" y="1678" width="144" height="41" as="geometry" />
        </mxCell>
        <mxCell id="Pjm44x9L5e39kdIj_LCA-5" value="" style="rounded=0;whiteSpace=wrap;html=1;fillColor=none;strokeColor=light-dark(#287ce0, #008F00);strokeWidth=3;" parent="Pjm44x9L5e39kdIj_LCA-8" vertex="1">
          <mxGeometry width="144" height="41" as="geometry" />
        </mxCell>
        <mxCell id="Pjm44x9L5e39kdIj_LCA-6" value="&lt;h4&gt;&lt;font style=&quot;color: rgb(51, 51, 51);&quot;&gt;&lt;b style=&quot;&quot;&gt;Quality Measure&lt;/b&gt;&lt;/font&gt;&lt;/h4&gt;" style="text;html=1;align=center;verticalAlign=middle;whiteSpace=wrap;rounded=0;" parent="Pjm44x9L5e39kdIj_LCA-8" vertex="1">
          <mxGeometry x="15.5" y="5.5" width="113" height="30" as="geometry" />
        </mxCell>
        <mxCell id="Pjm44x9L5e39kdIj_LCA-12" value="" style="group" parent="1" vertex="1" connectable="0">
          <mxGeometry x="111" y="1761" width="144" height="41" as="geometry" />
        </mxCell>
        <mxCell id="Pjm44x9L5e39kdIj_LCA-13" value="" style="rounded=0;whiteSpace=wrap;html=1;fillColor=none;strokeColor=light-dark(#287ce0, #008F00);strokeWidth=3;" parent="Pjm44x9L5e39kdIj_LCA-12" vertex="1">
          <mxGeometry width="144" height="41" as="geometry" />
        </mxCell>
        <mxCell id="Pjm44x9L5e39kdIj_LCA-14" value="&lt;h4&gt;&lt;font style=&quot;color: rgb(51, 51, 51);&quot;&gt;&lt;b style=&quot;&quot;&gt;Cost Save&lt;/b&gt;&lt;/font&gt;&lt;/h4&gt;" style="text;html=1;align=center;verticalAlign=middle;whiteSpace=wrap;rounded=0;" parent="Pjm44x9L5e39kdIj_LCA-12" vertex="1">
          <mxGeometry x="15.5" y="5.5" width="113" height="30" as="geometry" />
        </mxCell>
        <mxCell id="Pjm44x9L5e39kdIj_LCA-15" value="" style="group" parent="1" vertex="1" connectable="0">
          <mxGeometry x="111" y="1841" width="144" height="41" as="geometry" />
        </mxCell>
        <mxCell id="Pjm44x9L5e39kdIj_LCA-16" value="" style="rounded=0;whiteSpace=wrap;html=1;fillColor=none;strokeColor=light-dark(#007FFF,#008F00);strokeWidth=3;" parent="Pjm44x9L5e39kdIj_LCA-15" vertex="1">
          <mxGeometry width="144" height="41" as="geometry" />
        </mxCell>
        <mxCell id="Pjm44x9L5e39kdIj_LCA-17" value="&lt;h4&gt;&lt;font style=&quot;color: rgb(51, 51, 51);&quot;&gt;&lt;b style=&quot;&quot;&gt;Revenue Uplift&lt;/b&gt;&lt;/font&gt;&lt;/h4&gt;" style="text;html=1;align=center;verticalAlign=middle;whiteSpace=wrap;rounded=0;" parent="Pjm44x9L5e39kdIj_LCA-15" vertex="1">
          <mxGeometry x="15.5" y="5.5" width="113" height="30" as="geometry" />
        </mxCell>
        <mxCell id="Pjm44x9L5e39kdIj_LCA-18" value="" style="strokeWidth=2;html=1;shape=mxgraph.flowchart.annotation_1;align=left;pointerEvents=1;" parent="1" vertex="1">
          <mxGeometry x="68" y="1595" width="13" height="291" as="geometry" />
        </mxCell>
        <mxCell id="Pjm44x9L5e39kdIj_LCA-20" value="" style="strokeWidth=2;html=1;shape=mxgraph.flowchart.annotation_1;align=left;pointerEvents=1;direction=west;" parent="1" vertex="1">
          <mxGeometry x="276" y="1595" width="13" height="291" as="geometry" />
        </mxCell>
        <mxCell id="Pjm44x9L5e39kdIj_LCA-22" value="&lt;b&gt;Objective of GenAI&lt;/b&gt;" style="text;html=1;align=center;verticalAlign=middle;whiteSpace=wrap;rounded=0;fontSize=17;fontStyle=4" parent="1" vertex="1">
          <mxGeometry x="83" y="1554" width="208" height="30" as="geometry" />
        </mxCell>
        <mxCell id="Pjm44x9L5e39kdIj_LCA-23" value="&lt;h4&gt;&lt;font style=&quot;color: rgb(51, 51, 51);&quot;&gt;&lt;b&gt;Direct Benefits&lt;/b&gt;&lt;/font&gt;&lt;/h4&gt;" style="text;html=1;align=center;verticalAlign=middle;whiteSpace=wrap;rounded=0;fontSize=14;" parent="1" vertex="1">
          <mxGeometry x="425" y="1595" width="139" height="30" as="geometry" />
        </mxCell>
        <mxCell id="Pjm44x9L5e39kdIj_LCA-24" value="&lt;b&gt;Success Metrics&lt;/b&gt;" style="text;html=1;align=center;verticalAlign=middle;whiteSpace=wrap;rounded=0;fontSize=17;fontStyle=4" parent="1" vertex="1">
          <mxGeometry x="394" y="1554" width="208" height="30" as="geometry" />
        </mxCell>
        <mxCell id="Pjm44x9L5e39kdIj_LCA-25" value="" style="strokeWidth=2;html=1;shape=mxgraph.flowchart.annotation_1;align=left;pointerEvents=1;" parent="1" vertex="1">
          <mxGeometry x="402" y="1611" width="13" height="118" as="geometry" />
        </mxCell>
        <mxCell id="Pjm44x9L5e39kdIj_LCA-26" value="" style="strokeWidth=2;html=1;shape=mxgraph.flowchart.annotation_1;align=left;pointerEvents=1;direction=west;" parent="1" vertex="1">
          <mxGeometry x="574" y="1611" width="13" height="118" as="geometry" />
        </mxCell>
        <mxCell id="Pjm44x9L5e39kdIj_LCA-75" style="edgeStyle=orthogonalEdgeStyle;curved=1;rounded=0;orthogonalLoop=1;jettySize=auto;html=1;exitX=1;exitY=0.5;exitDx=0;exitDy=0;entryX=0;entryY=0.5;entryDx=0;entryDy=0;" parent="1" source="Pjm44x9L5e39kdIj_LCA-27" target="Pjm44x9L5e39kdIj_LCA-42" edge="1">
          <mxGeometry relative="1" as="geometry" />
        </mxCell>
        <mxCell id="Pjm44x9L5e39kdIj_LCA-27" value="&lt;h5&gt;&lt;font style=&quot;color: rgb(51, 51, 51); font-size: 11px;&quot;&gt;&lt;b style=&quot;&quot;&gt;Cost Savings&lt;/b&gt;&lt;/font&gt;&lt;/h5&gt;" style="text;html=1;align=center;verticalAlign=middle;whiteSpace=wrap;rounded=0;fontSize=14;" parent="1" vertex="1">
          <mxGeometry x="452" y="1625" width="90" height="30" as="geometry" />
        </mxCell>
        <mxCell id="Pjm44x9L5e39kdIj_LCA-28" value="&lt;h5&gt;&lt;font style=&quot;color: rgb(51, 51, 51); font-size: 11px;&quot;&gt;&lt;b style=&quot;&quot;&gt;Revenue Uplift&lt;/b&gt;&lt;/font&gt;&lt;/h5&gt;" style="text;html=1;align=center;verticalAlign=middle;whiteSpace=wrap;rounded=0;fontSize=14;fontFamily=Helvetica;fontColor=default;" parent="1" vertex="1">
          <mxGeometry x="449" y="1660" width="96" height="30" as="geometry" />
        </mxCell>
        <mxCell id="Pjm44x9L5e39kdIj_LCA-29" value="&lt;h5&gt;&lt;font style=&quot;color: rgb(51, 51, 51); font-size: 11px;&quot;&gt;&lt;b style=&quot;&quot;&gt;Productivity Gain&lt;/b&gt;&lt;/font&gt;&lt;/h5&gt;" style="text;html=1;align=center;verticalAlign=middle;whiteSpace=wrap;rounded=0;fontSize=12;" parent="1" vertex="1">
          <mxGeometry x="445" y="1695" width="110" height="30" as="geometry" />
        </mxCell>
        <mxCell id="Pjm44x9L5e39kdIj_LCA-30" value="&lt;h4&gt;&lt;font style=&quot;color: rgb(51, 51, 51);&quot;&gt;&lt;b&gt;Indirect Benefits&lt;/b&gt;&lt;/font&gt;&lt;/h4&gt;" style="text;html=1;align=center;verticalAlign=middle;whiteSpace=wrap;rounded=0;fontSize=14;" parent="1" vertex="1">
          <mxGeometry x="422" y="1755" width="139" height="30" as="geometry" />
        </mxCell>
        <mxCell id="Pjm44x9L5e39kdIj_LCA-31" value="" style="strokeWidth=2;html=1;shape=mxgraph.flowchart.annotation_1;align=left;pointerEvents=1;" parent="1" vertex="1">
          <mxGeometry x="402" y="1769" width="13" height="188" as="geometry" />
        </mxCell>
        <mxCell id="Pjm44x9L5e39kdIj_LCA-32" value="" style="strokeWidth=2;html=1;shape=mxgraph.flowchart.annotation_1;align=left;pointerEvents=1;direction=west;" parent="1" vertex="1">
          <mxGeometry x="574" y="1769" width="13" height="188" as="geometry" />
        </mxCell>
        <mxCell id="Pjm44x9L5e39kdIj_LCA-33" value="&lt;h5&gt;&lt;font style=&quot;color: rgb(51, 51, 51); font-size: 11px;&quot;&gt;&lt;b style=&quot;&quot;&gt;Employee Satisfaction&lt;/b&gt;&lt;/font&gt;&lt;/h5&gt;" style="text;html=1;align=center;verticalAlign=middle;whiteSpace=wrap;rounded=0;fontSize=12;" parent="1" vertex="1">
          <mxGeometry x="425" y="1797" width="139" height="30" as="geometry" />
        </mxCell>
        <mxCell id="Pjm44x9L5e39kdIj_LCA-34" value="&lt;h5&gt;&lt;font style=&quot;color: rgb(51, 51, 51); font-size: 11px;&quot;&gt;&lt;b&gt;Customer Exp. Score&lt;/b&gt;&lt;/font&gt;&lt;/h5&gt;" style="text;html=1;align=center;verticalAlign=middle;whiteSpace=wrap;rounded=0;fontSize=12;" parent="1" vertex="1">
          <mxGeometry x="425" y="1839" width="139" height="30" as="geometry" />
        </mxCell>
        <mxCell id="Pjm44x9L5e39kdIj_LCA-35" value="&lt;h5&gt;&lt;font style=&quot;color: rgb(51, 51, 51); font-size: 11px;&quot;&gt;&lt;b style=&quot;&quot;&gt;Innovation Velocity&lt;/b&gt;&lt;/font&gt;&lt;/h5&gt;" style="text;html=1;align=center;verticalAlign=middle;whiteSpace=wrap;rounded=0;fontSize=12;" parent="1" vertex="1">
          <mxGeometry x="434" y="1882" width="121" height="30" as="geometry" />
        </mxCell>
        <mxCell id="Pjm44x9L5e39kdIj_LCA-38" value="&lt;h5&gt;&lt;font style=&quot;color: rgb(51, 51, 51); font-size: 11px;&quot;&gt;&lt;b style=&quot;&quot;&gt;Agility Improvement&lt;/b&gt;&lt;/font&gt;&lt;/h5&gt;" style="text;html=1;align=center;verticalAlign=middle;whiteSpace=wrap;rounded=0;fontSize=12;" parent="1" vertex="1">
          <mxGeometry x="433" y="1924" width="127" height="30" as="geometry" />
        </mxCell>
        <mxCell id="Pjm44x9L5e39kdIj_LCA-40" value="&lt;b&gt;Success Measurement&lt;/b&gt;" style="text;html=1;align=center;verticalAlign=middle;whiteSpace=wrap;rounded=0;fontSize=17;fontStyle=4" parent="1" vertex="1">
          <mxGeometry x="655" y="1554" width="208" height="30" as="geometry" />
        </mxCell>
        <mxCell id="Pjm44x9L5e39kdIj_LCA-41" value="" style="group" parent="1" vertex="1" connectable="0">
          <mxGeometry x="685" y="1598" width="144" height="41" as="geometry" />
        </mxCell>
        <mxCell id="Pjm44x9L5e39kdIj_LCA-43" value="&lt;h4&gt;&lt;font style=&quot;color: rgb(51, 51, 51); font-size: 11px;&quot;&gt;&lt;b&gt;Live Direct Measurement ($)&lt;/b&gt;&lt;/font&gt;&lt;/h4&gt;" style="text;html=1;align=center;verticalAlign=middle;whiteSpace=wrap;rounded=0;" parent="Pjm44x9L5e39kdIj_LCA-41" vertex="1">
          <mxGeometry x="15.5" y="5.5" width="113" height="30" as="geometry" />
        </mxCell>
        <mxCell id="Pjm44x9L5e39kdIj_LCA-48" value="" style="rounded=0;whiteSpace=wrap;html=1;fillColor=none;strokeColor=light-dark(#00FF00,#008F00);strokeWidth=3;" parent="1" vertex="1">
          <mxGeometry x="685" y="1666" width="144" height="41" as="geometry" />
        </mxCell>
        <mxCell id="Pjm44x9L5e39kdIj_LCA-49" value="" style="group" parent="1" vertex="1" connectable="0">
          <mxGeometry x="685" y="1666" width="144" height="41" as="geometry" />
        </mxCell>
        <mxCell id="Pjm44x9L5e39kdIj_LCA-50" value="&lt;h4&gt;&lt;font style=&quot;color: rgb(51, 51, 51); font-size: 11px;&quot;&gt;&lt;b&gt;Offline Direct Measurement ($)&lt;/b&gt;&lt;/font&gt;&lt;/h4&gt;" style="text;html=1;align=center;verticalAlign=middle;whiteSpace=wrap;rounded=0;" parent="Pjm44x9L5e39kdIj_LCA-49" vertex="1">
          <mxGeometry x="15.5" y="5.5" width="113" height="30" as="geometry" />
        </mxCell>
        <mxCell id="Pjm44x9L5e39kdIj_LCA-62" value="" style="rounded=0;whiteSpace=wrap;html=1;fillColor=none;strokeColor=light-dark(#00FF00,#008F00);strokeWidth=3;" parent="1" vertex="1">
          <mxGeometry x="685" y="1738" width="144" height="41" as="geometry" />
        </mxCell>
        <mxCell id="Pjm44x9L5e39kdIj_LCA-63" value="" style="group" parent="1" vertex="1" connectable="0">
          <mxGeometry x="685" y="1738" width="144" height="41" as="geometry" />
        </mxCell>
        <mxCell id="Pjm44x9L5e39kdIj_LCA-64" value="&lt;h4&gt;&lt;font style=&quot;color: rgb(51, 51, 51); font-size: 11px;&quot;&gt;&lt;b&gt;Live Direct Measurement (non-$)&lt;/b&gt;&lt;/font&gt;&lt;/h4&gt;" style="text;html=1;align=center;verticalAlign=middle;whiteSpace=wrap;rounded=0;" parent="Pjm44x9L5e39kdIj_LCA-63" vertex="1">
          <mxGeometry x="11" y="5.5" width="131" height="30" as="geometry" />
        </mxCell>
        <mxCell id="Pjm44x9L5e39kdIj_LCA-67" value="" style="rounded=0;whiteSpace=wrap;html=1;fillColor=none;strokeColor=light-dark(#00FF00,#008F00);strokeWidth=3;" parent="1" vertex="1">
          <mxGeometry x="685" y="1800" width="144" height="41" as="geometry" />
        </mxCell>
        <mxCell id="Pjm44x9L5e39kdIj_LCA-68" value="" style="group" parent="1" vertex="1" connectable="0">
          <mxGeometry x="685" y="1800" width="144" height="41" as="geometry" />
        </mxCell>
        <mxCell id="Pjm44x9L5e39kdIj_LCA-69" value="&lt;h4&gt;&lt;font style=&quot;color: rgb(51, 51, 51); font-size: 11px;&quot;&gt;&lt;b&gt;Direct Users Feedback&lt;/b&gt;&lt;/font&gt;&lt;/h4&gt;" style="text;html=1;align=center;verticalAlign=middle;whiteSpace=wrap;rounded=0;" parent="Pjm44x9L5e39kdIj_LCA-68" vertex="1">
          <mxGeometry x="11" y="5.5" width="131" height="30" as="geometry" />
        </mxCell>
        <mxCell id="Pjm44x9L5e39kdIj_LCA-70" value="" style="rounded=0;whiteSpace=wrap;html=1;fillColor=none;strokeColor=light-dark(#00FF00,#008F00);strokeWidth=3;" parent="1" vertex="1">
          <mxGeometry x="685" y="1869" width="144" height="41" as="geometry" />
        </mxCell>
        <mxCell id="Pjm44x9L5e39kdIj_LCA-71" value="" style="group" parent="1" vertex="1" connectable="0">
          <mxGeometry x="685" y="1869" width="144" height="41" as="geometry" />
        </mxCell>
        <mxCell id="Pjm44x9L5e39kdIj_LCA-72" value="&lt;h4&gt;&lt;font style=&quot;color: rgb(51, 51, 51); font-size: 11px;&quot;&gt;&lt;b&gt;Backend Data Collection&lt;/b&gt;&lt;/font&gt;&lt;/h4&gt;" style="text;html=1;align=center;verticalAlign=middle;whiteSpace=wrap;rounded=0;" parent="Pjm44x9L5e39kdIj_LCA-71" vertex="1">
          <mxGeometry x="11" y="5.5" width="131" height="30" as="geometry" />
        </mxCell>
        <mxCell id="Pjm44x9L5e39kdIj_LCA-76" style="edgeStyle=orthogonalEdgeStyle;curved=1;rounded=0;orthogonalLoop=1;jettySize=auto;html=1;exitX=1;exitY=0.5;exitDx=0;exitDy=0;entryX=0;entryY=0.5;entryDx=0;entryDy=0;" parent="1" source="Pjm44x9L5e39kdIj_LCA-27" target="Pjm44x9L5e39kdIj_LCA-48" edge="1">
          <mxGeometry relative="1" as="geometry">
            <mxPoint x="610" y="1652" as="sourcePoint" />
            <mxPoint x="753" y="1631" as="targetPoint" />
          </mxGeometry>
        </mxCell>
        <mxCell id="Pjm44x9L5e39kdIj_LCA-77" style="edgeStyle=orthogonalEdgeStyle;curved=1;rounded=0;orthogonalLoop=1;jettySize=auto;html=1;exitX=1;exitY=0.5;exitDx=0;exitDy=0;entryX=0;entryY=0.5;entryDx=0;entryDy=0;" parent="1" source="Pjm44x9L5e39kdIj_LCA-28" target="Pjm44x9L5e39kdIj_LCA-48" edge="1">
          <mxGeometry relative="1" as="geometry">
            <mxPoint x="595" y="1713" as="sourcePoint" />
            <mxPoint x="678" y="1688" as="targetPoint" />
          </mxGeometry>
        </mxCell>
        <mxCell id="Pjm44x9L5e39kdIj_LCA-79" style="edgeStyle=orthogonalEdgeStyle;curved=1;rounded=0;orthogonalLoop=1;jettySize=auto;html=1;exitX=1;exitY=0.5;exitDx=0;exitDy=0;entryX=0;entryY=0.5;entryDx=0;entryDy=0;" parent="1" source="Pjm44x9L5e39kdIj_LCA-29" target="Pjm44x9L5e39kdIj_LCA-62" edge="1">
          <mxGeometry relative="1" as="geometry">
            <mxPoint x="510.25" y="1746" as="sourcePoint" />
            <mxPoint x="650.25" y="1758" as="targetPoint" />
          </mxGeometry>
        </mxCell>
        <mxCell id="Pjm44x9L5e39kdIj_LCA-81" style="edgeStyle=orthogonalEdgeStyle;curved=1;rounded=0;orthogonalLoop=1;jettySize=auto;html=1;exitX=1;exitY=0.5;exitDx=0;exitDy=0;entryX=0;entryY=0.5;entryDx=0;entryDy=0;" parent="1" source="Pjm44x9L5e39kdIj_LCA-29" target="Pjm44x9L5e39kdIj_LCA-67" edge="1">
          <mxGeometry relative="1" as="geometry">
            <mxPoint x="511" y="1769" as="sourcePoint" />
            <mxPoint x="641" y="1818" as="targetPoint" />
          </mxGeometry>
        </mxCell>
        <mxCell id="Pjm44x9L5e39kdIj_LCA-82" style="edgeStyle=orthogonalEdgeStyle;curved=1;rounded=0;orthogonalLoop=1;jettySize=auto;html=1;exitX=1;exitY=0.5;exitDx=0;exitDy=0;entryX=0;entryY=0.5;entryDx=0;entryDy=0;" parent="1" source="Pjm44x9L5e39kdIj_LCA-33" target="Pjm44x9L5e39kdIj_LCA-67" edge="1">
          <mxGeometry relative="1" as="geometry">
            <mxPoint x="621" y="1795" as="sourcePoint" />
            <mxPoint x="751" y="1906" as="targetPoint" />
          </mxGeometry>
        </mxCell>
        <mxCell id="Pjm44x9L5e39kdIj_LCA-83" style="edgeStyle=orthogonalEdgeStyle;curved=1;rounded=0;orthogonalLoop=1;jettySize=auto;html=1;exitX=1;exitY=0.5;exitDx=0;exitDy=0;entryX=0;entryY=0.5;entryDx=0;entryDy=0;" parent="1" source="Pjm44x9L5e39kdIj_LCA-34" target="Pjm44x9L5e39kdIj_LCA-67" edge="1">
          <mxGeometry relative="1" as="geometry">
            <mxPoint x="588" y="1910" as="sourcePoint" />
            <mxPoint x="709" y="1919" as="targetPoint" />
          </mxGeometry>
        </mxCell>
        <mxCell id="Pjm44x9L5e39kdIj_LCA-84" style="edgeStyle=orthogonalEdgeStyle;curved=1;rounded=0;orthogonalLoop=1;jettySize=auto;html=1;exitX=1;exitY=0.5;exitDx=0;exitDy=0;entryX=0;entryY=0.5;entryDx=0;entryDy=0;" parent="1" source="Pjm44x9L5e39kdIj_LCA-33" target="Pjm44x9L5e39kdIj_LCA-70" edge="1">
          <mxGeometry relative="1" as="geometry">
            <mxPoint x="603" y="1804" as="sourcePoint" />
            <mxPoint x="724" y="1813" as="targetPoint" />
          </mxGeometry>
        </mxCell>
        <mxCell id="Pjm44x9L5e39kdIj_LCA-86" value="" style="rounded=0;whiteSpace=wrap;html=1;fillColor=none;strokeColor=light-dark(#00FF00,#008F00);strokeWidth=3;" parent="1" vertex="1">
          <mxGeometry x="685" y="1939" width="144" height="41" as="geometry" />
        </mxCell>
        <mxCell id="Pjm44x9L5e39kdIj_LCA-87" value="" style="group" parent="1" vertex="1" connectable="0">
          <mxGeometry x="685" y="1939" width="144" height="41" as="geometry" />
        </mxCell>
        <mxCell id="Pjm44x9L5e39kdIj_LCA-88" value="&lt;h4&gt;&lt;font style=&quot;color: rgb(51, 51, 51); font-size: 11px;&quot;&gt;&lt;b&gt;Offline Indirect Measure (non-$)&lt;/b&gt;&lt;/font&gt;&lt;/h4&gt;" style="text;html=1;align=center;verticalAlign=middle;whiteSpace=wrap;rounded=0;" parent="Pjm44x9L5e39kdIj_LCA-87" vertex="1">
          <mxGeometry x="11" y="5.5" width="131" height="30" as="geometry" />
        </mxCell>
        <mxCell id="Pjm44x9L5e39kdIj_LCA-89" style="edgeStyle=orthogonalEdgeStyle;curved=1;rounded=0;orthogonalLoop=1;jettySize=auto;html=1;entryX=0;entryY=0.5;entryDx=0;entryDy=0;exitX=1;exitY=0.5;exitDx=0;exitDy=0;" parent="1" source="Pjm44x9L5e39kdIj_LCA-35" target="Pjm44x9L5e39kdIj_LCA-86" edge="1">
          <mxGeometry relative="1" as="geometry">
            <mxPoint x="580" y="1911" as="sourcePoint" />
            <mxPoint x="688" y="1988" as="targetPoint" />
          </mxGeometry>
        </mxCell>
        <mxCell id="Pjm44x9L5e39kdIj_LCA-90" style="edgeStyle=orthogonalEdgeStyle;curved=1;rounded=0;orthogonalLoop=1;jettySize=auto;html=1;entryX=0;entryY=0.5;entryDx=0;entryDy=0;exitX=1;exitY=0.5;exitDx=0;exitDy=0;" parent="1" source="Pjm44x9L5e39kdIj_LCA-38" target="Pjm44x9L5e39kdIj_LCA-86" edge="1">
          <mxGeometry relative="1" as="geometry">
            <mxPoint x="626" y="1939" as="sourcePoint" />
            <mxPoint x="756" y="2002" as="targetPoint" />
          </mxGeometry>
        </mxCell>
        <mxCell id="Pjm44x9L5e39kdIj_LCA-91" value="&lt;b&gt;Execution Methods&lt;/b&gt;" style="text;html=1;align=center;verticalAlign=middle;whiteSpace=wrap;rounded=0;fontSize=17;fontStyle=4" parent="1" vertex="1">
          <mxGeometry x="935" y="1554" width="208" height="30" as="geometry" />
        </mxCell>
        <mxCell id="Pjm44x9L5e39kdIj_LCA-94" value="&lt;h3&gt;&lt;font style=&quot;color: rgb(51, 51, 51);&quot;&gt;&lt;b&gt;Baseline Benefit&amp;nbsp;&lt;/b&gt;&lt;/font&gt;&lt;/h3&gt;" style="text;html=1;align=center;verticalAlign=middle;whiteSpace=wrap;rounded=0;fontSize=11;" parent="1" vertex="1">
          <mxGeometry x="978" y="1602.5" width="127" height="30" as="geometry" />
        </mxCell>
        <mxCell id="Pjm44x9L5e39kdIj_LCA-92" value="" style="strokeWidth=3;html=1;shape=mxgraph.flowchart.start_2;whiteSpace=wrap;strokeColor=light-dark(#9933FF,#EDEDED);fillColor=light-dark(#b77070, #ededed);container=0;" parent="1" vertex="1">
          <mxGeometry x="939" y="1603.5" width="30" height="30" as="geometry" />
        </mxCell>
        <mxCell id="Pjm44x9L5e39kdIj_LCA-93" value="&lt;h2&gt;&lt;font style=&quot;font-size: 14px;&quot;&gt;1&lt;/font&gt;&lt;/h2&gt;" style="text;html=1;align=center;verticalAlign=middle;whiteSpace=wrap;rounded=0;container=0;" parent="1" vertex="1">
          <mxGeometry x="942.5" y="1606" width="21" height="21" as="geometry" />
        </mxCell>
        <mxCell id="Pjm44x9L5e39kdIj_LCA-96" value="&lt;h3&gt;&lt;font style=&quot;color: rgb(51, 51, 51);&quot;&gt;&lt;b&gt;Live Info. Tracking&lt;/b&gt;&lt;/font&gt;&lt;/h3&gt;" style="text;html=1;align=center;verticalAlign=middle;whiteSpace=wrap;rounded=0;fontSize=11;" parent="1" vertex="1">
          <mxGeometry x="978" y="1655" width="136" height="30" as="geometry" />
        </mxCell>
        <mxCell id="Pjm44x9L5e39kdIj_LCA-97" value="" style="strokeWidth=3;html=1;shape=mxgraph.flowchart.start_2;whiteSpace=wrap;strokeColor=light-dark(#9933FF,#EDEDED);fillColor=light-dark(#b77070, #ededed);container=0;" parent="1" vertex="1">
          <mxGeometry x="939" y="1656" width="30" height="30" as="geometry" />
        </mxCell>
        <mxCell id="Pjm44x9L5e39kdIj_LCA-98" value="&lt;h2&gt;&lt;font style=&quot;font-size: 14px;&quot;&gt;2&lt;/font&gt;&lt;/h2&gt;" style="text;html=1;align=center;verticalAlign=middle;whiteSpace=wrap;rounded=0;container=0;" parent="1" vertex="1">
          <mxGeometry x="942.5" y="1658.5" width="21" height="21" as="geometry" />
        </mxCell>
        <mxCell id="Pjm44x9L5e39kdIj_LCA-100" value="" style="triangle;whiteSpace=wrap;html=1;strokeWidth=2;strokeColor=#00CCCC;fillColor=none;" parent="1" vertex="1">
          <mxGeometry x="983" y="1696" width="6" height="10" as="geometry" />
        </mxCell>
        <mxCell id="Pjm44x9L5e39kdIj_LCA-101" value="&lt;h5&gt;&lt;font style=&quot;color: rgb(51, 51, 51); font-size: 11px;&quot;&gt;&lt;b style=&quot;&quot;&gt;Track Manual Intervention&lt;/b&gt;&lt;/font&gt;&lt;/h5&gt;" style="text;html=1;align=center;verticalAlign=middle;whiteSpace=wrap;rounded=0;fontSize=11;" parent="1" vertex="1">
          <mxGeometry x="999" y="1689" width="94" height="24" as="geometry" />
        </mxCell>
        <mxCell id="Pjm44x9L5e39kdIj_LCA-103" value="" style="triangle;whiteSpace=wrap;html=1;strokeWidth=2;strokeColor=#00CCCC;fillColor=none;" parent="1" vertex="1">
          <mxGeometry x="983" y="1745" width="6" height="10" as="geometry" />
        </mxCell>
        <mxCell id="Pjm44x9L5e39kdIj_LCA-104" value="&lt;h5&gt;&lt;font style=&quot;color: rgb(51, 51, 51); font-size: 11px;&quot;&gt;&lt;b style=&quot;&quot;&gt;Track Time Saving in Process&lt;/b&gt;&lt;/font&gt;&lt;/h5&gt;" style="text;html=1;align=center;verticalAlign=middle;whiteSpace=wrap;rounded=0;fontSize=11;" parent="1" vertex="1">
          <mxGeometry x="999" y="1739" width="109" height="24" as="geometry" />
        </mxCell>
        <mxCell id="DvH0oKD77Us_AZ8ZDjh3-1" value="" style="triangle;whiteSpace=wrap;html=1;strokeWidth=2;strokeColor=#00CCCC;fillColor=none;" parent="1" vertex="1">
          <mxGeometry x="983" y="1795" width="6" height="10" as="geometry" />
        </mxCell>
        <mxCell id="DvH0oKD77Us_AZ8ZDjh3-2" value="&lt;h5&gt;&lt;font style=&quot;color: rgb(51, 51, 51); font-size: 11px;&quot;&gt;&lt;b style=&quot;&quot;&gt;Backend Data Tracking&lt;/b&gt;&lt;/font&gt;&lt;/h5&gt;" style="text;html=1;align=center;verticalAlign=middle;whiteSpace=wrap;rounded=0;fontSize=11;" parent="1" vertex="1">
          <mxGeometry x="999" y="1789" width="92" height="24" as="geometry" />
        </mxCell>
        <mxCell id="DvH0oKD77Us_AZ8ZDjh3-3" value="&lt;h3&gt;&lt;font style=&quot;color: rgb(51, 51, 51);&quot;&gt;&lt;b&gt;Offline Info. Tracking&lt;/b&gt;&lt;/font&gt;&lt;/h3&gt;" style="text;html=1;align=center;verticalAlign=middle;whiteSpace=wrap;rounded=0;fontSize=11;" parent="1" vertex="1">
          <mxGeometry x="981.5" y="1867" width="152.5" height="30" as="geometry" />
        </mxCell>
        <mxCell id="DvH0oKD77Us_AZ8ZDjh3-4" value="" style="strokeWidth=3;html=1;shape=mxgraph.flowchart.start_2;whiteSpace=wrap;strokeColor=light-dark(#9933FF,#EDEDED);fillColor=light-dark(#b77070, #ededed);container=0;" parent="1" vertex="1">
          <mxGeometry x="942.5" y="1868" width="30" height="30" as="geometry" />
        </mxCell>
        <mxCell id="DvH0oKD77Us_AZ8ZDjh3-5" value="&lt;h2&gt;&lt;font style=&quot;font-size: 14px;&quot;&gt;3&lt;/font&gt;&lt;/h2&gt;" style="text;html=1;align=center;verticalAlign=middle;whiteSpace=wrap;rounded=0;container=0;" parent="1" vertex="1">
          <mxGeometry x="946" y="1870.5" width="21" height="21" as="geometry" />
        </mxCell>
        <mxCell id="DvH0oKD77Us_AZ8ZDjh3-6" value="" style="triangle;whiteSpace=wrap;html=1;strokeWidth=2;strokeColor=#00CCCC;fillColor=none;" parent="1" vertex="1">
          <mxGeometry x="978" y="1922" width="6" height="10" as="geometry" />
        </mxCell>
        <mxCell id="DvH0oKD77Us_AZ8ZDjh3-7" value="&lt;h5&gt;&lt;font style=&quot;color: rgb(51, 51, 51); font-size: 11px;&quot;&gt;&lt;b style=&quot;&quot;&gt;Feedback Analysis&lt;/b&gt;&lt;/font&gt;&lt;/h5&gt;" style="text;html=1;align=center;verticalAlign=middle;whiteSpace=wrap;rounded=0;fontSize=11;" parent="1" vertex="1">
          <mxGeometry x="994" y="1915" width="69" height="24" as="geometry" />
        </mxCell>
        <mxCell id="DvH0oKD77Us_AZ8ZDjh3-8" value="" style="triangle;whiteSpace=wrap;html=1;strokeWidth=2;strokeColor=#00CCCC;fillColor=none;" parent="1" vertex="1">
          <mxGeometry x="978" y="1971" width="6" height="10" as="geometry" />
        </mxCell>
        <mxCell id="DvH0oKD77Us_AZ8ZDjh3-9" value="&lt;h5&gt;&lt;font style=&quot;color: rgb(51, 51, 51); font-size: 11px;&quot;&gt;&lt;b style=&quot;&quot;&gt;Delta Revenue Alignment&lt;/b&gt;&lt;/font&gt;&lt;/h5&gt;" style="text;html=1;align=center;verticalAlign=middle;whiteSpace=wrap;rounded=0;fontSize=11;" parent="1" vertex="1">
          <mxGeometry x="994" y="1965" width="92" height="24" as="geometry" />
        </mxCell>
        <mxCell id="DvH0oKD77Us_AZ8ZDjh3-10" value="" style="triangle;whiteSpace=wrap;html=1;strokeWidth=2;strokeColor=#00CCCC;fillColor=none;" parent="1" vertex="1">
          <mxGeometry x="978" y="2021" width="6" height="10" as="geometry" />
        </mxCell>
        <mxCell id="DvH0oKD77Us_AZ8ZDjh3-11" value="&lt;h5&gt;&lt;font style=&quot;color: rgb(51, 51, 51); font-size: 11px;&quot;&gt;&lt;b style=&quot;&quot;&gt;Delta Cost Save Alignment&lt;/b&gt;&lt;/font&gt;&lt;/h5&gt;" style="text;html=1;align=center;verticalAlign=middle;whiteSpace=wrap;rounded=0;fontSize=11;" parent="1" vertex="1">
          <mxGeometry x="994" y="2015" width="101" height="24" as="geometry" />
        </mxCell>
        <mxCell id="DvH0oKD77Us_AZ8ZDjh3-12" value="&lt;b&gt;Converters&lt;/b&gt;" style="text;html=1;align=center;verticalAlign=middle;whiteSpace=wrap;rounded=0;fontSize=17;fontStyle=4" parent="1" vertex="1">
          <mxGeometry x="1234" y="1554" width="185" height="30" as="geometry" />
        </mxCell>
        <mxCell id="DvH0oKD77Us_AZ8ZDjh3-14" style="edgeStyle=orthogonalEdgeStyle;curved=1;rounded=0;orthogonalLoop=1;jettySize=auto;html=1;exitX=1;exitY=0.5;exitDx=0;exitDy=0;entryX=0;entryY=0.5;entryDx=0;entryDy=0;" parent="1" source="Pjm44x9L5e39kdIj_LCA-42" target="DvH0oKD77Us_AZ8ZDjh3-15" edge="1">
          <mxGeometry relative="1" as="geometry">
            <mxPoint x="795.53" y="1780.26" as="sourcePoint" />
            <mxPoint x="938.53" y="1759.26" as="targetPoint" />
          </mxGeometry>
        </mxCell>
        <mxCell id="DvH0oKD77Us_AZ8ZDjh3-15" value="" style="triangle;whiteSpace=wrap;html=1;strokeWidth=2;strokeColor=#00CCCC;fillColor=none;" parent="1" vertex="1">
          <mxGeometry x="983" y="1839.5" width="6" height="10" as="geometry" />
        </mxCell>
        <mxCell id="DvH0oKD77Us_AZ8ZDjh3-16" value="&lt;h5&gt;&lt;font style=&quot;color: rgb(51, 51, 51); font-size: 11px;&quot;&gt;&lt;b style=&quot;&quot;&gt;Cost Savings&lt;/b&gt;&lt;/font&gt;&lt;/h5&gt;" style="text;html=1;align=center;verticalAlign=middle;whiteSpace=wrap;rounded=0;fontSize=11;" parent="1" vertex="1">
          <mxGeometry x="999" y="1833.5" width="90" height="24" as="geometry" />
        </mxCell>
        <mxCell id="DvH0oKD77Us_AZ8ZDjh3-17" style="edgeStyle=orthogonalEdgeStyle;curved=1;rounded=0;orthogonalLoop=1;jettySize=auto;html=1;exitX=1;exitY=0.5;exitDx=0;exitDy=0;entryX=0;entryY=0.5;entryDx=0;entryDy=0;" parent="1" source="Pjm44x9L5e39kdIj_LCA-48" target="DvH0oKD77Us_AZ8ZDjh3-8" edge="1">
          <mxGeometry relative="1" as="geometry">
            <mxPoint x="874" y="1638" as="sourcePoint" />
            <mxPoint x="1028" y="1880" as="targetPoint" />
          </mxGeometry>
        </mxCell>
        <mxCell id="DvH0oKD77Us_AZ8ZDjh3-18" style="edgeStyle=orthogonalEdgeStyle;curved=1;rounded=0;orthogonalLoop=1;jettySize=auto;html=1;exitX=1;exitY=0.5;exitDx=0;exitDy=0;entryX=0;entryY=0.25;entryDx=0;entryDy=0;" parent="1" source="Pjm44x9L5e39kdIj_LCA-48" target="DvH0oKD77Us_AZ8ZDjh3-10" edge="1">
          <mxGeometry relative="1" as="geometry">
            <mxPoint x="790.44" y="1738.03" as="sourcePoint" />
            <mxPoint x="942.44" y="2091.03" as="targetPoint" />
          </mxGeometry>
        </mxCell>
        <mxCell id="DvH0oKD77Us_AZ8ZDjh3-19" style="edgeStyle=orthogonalEdgeStyle;curved=1;rounded=0;orthogonalLoop=1;jettySize=auto;html=1;exitX=1;exitY=0.5;exitDx=0;exitDy=0;entryX=0;entryY=0.5;entryDx=0;entryDy=0;" parent="1" source="Pjm44x9L5e39kdIj_LCA-62" target="DvH0oKD77Us_AZ8ZDjh3-1" edge="1">
          <mxGeometry relative="1" as="geometry">
            <mxPoint x="873" y="1805" as="sourcePoint" />
            <mxPoint x="916" y="1924" as="targetPoint" />
          </mxGeometry>
        </mxCell>
        <mxCell id="DvH0oKD77Us_AZ8ZDjh3-20" style="edgeStyle=orthogonalEdgeStyle;curved=1;rounded=0;orthogonalLoop=1;jettySize=auto;html=1;exitX=1;exitY=0.5;exitDx=0;exitDy=0;entryX=0;entryY=0.25;entryDx=0;entryDy=0;" parent="1" source="Pjm44x9L5e39kdIj_LCA-70" target="DvH0oKD77Us_AZ8ZDjh3-1" edge="1">
          <mxGeometry relative="1" as="geometry">
            <mxPoint x="882" y="1775" as="sourcePoint" />
            <mxPoint x="944" y="1831" as="targetPoint" />
          </mxGeometry>
        </mxCell>
        <mxCell id="DvH0oKD77Us_AZ8ZDjh3-22" style="edgeStyle=orthogonalEdgeStyle;curved=1;rounded=0;orthogonalLoop=1;jettySize=auto;html=1;exitX=1;exitY=0.5;exitDx=0;exitDy=0;entryX=0;entryY=0.75;entryDx=0;entryDy=0;" parent="1" source="Pjm44x9L5e39kdIj_LCA-62" target="Pjm44x9L5e39kdIj_LCA-103" edge="1">
          <mxGeometry relative="1" as="geometry">
            <mxPoint x="815" y="1757" as="sourcePoint" />
            <mxPoint x="969" y="1814" as="targetPoint" />
          </mxGeometry>
        </mxCell>
        <mxCell id="DvH0oKD77Us_AZ8ZDjh3-23" style="edgeStyle=orthogonalEdgeStyle;curved=1;rounded=0;orthogonalLoop=1;jettySize=auto;html=1;exitX=1;exitY=0.5;exitDx=0;exitDy=0;entryX=0;entryY=0.25;entryDx=0;entryDy=0;" parent="1" source="Pjm44x9L5e39kdIj_LCA-64" target="Pjm44x9L5e39kdIj_LCA-100" edge="1">
          <mxGeometry relative="1" as="geometry">
            <mxPoint x="843" y="1991" as="sourcePoint" />
            <mxPoint x="997" y="2001" as="targetPoint" />
          </mxGeometry>
        </mxCell>
        <mxCell id="DvH0oKD77Us_AZ8ZDjh3-24" style="edgeStyle=orthogonalEdgeStyle;curved=1;rounded=0;orthogonalLoop=1;jettySize=auto;html=1;exitX=1;exitY=0.5;exitDx=0;exitDy=0;entryX=0;entryY=0.75;entryDx=0;entryDy=0;" parent="1" source="Pjm44x9L5e39kdIj_LCA-69" target="DvH0oKD77Us_AZ8ZDjh3-6" edge="1">
          <mxGeometry relative="1" as="geometry">
            <mxPoint x="855" y="1958" as="sourcePoint" />
            <mxPoint x="1009" y="1881" as="targetPoint" />
          </mxGeometry>
        </mxCell>
        <mxCell id="DvH0oKD77Us_AZ8ZDjh3-26" value="" style="triangle;whiteSpace=wrap;html=1;strokeWidth=2;strokeColor=#00CCCC;fillColor=none;" parent="1" vertex="1">
          <mxGeometry x="978" y="2072" width="6" height="10" as="geometry" />
        </mxCell>
        <mxCell id="DvH0oKD77Us_AZ8ZDjh3-27" value="&lt;h5&gt;&lt;font style=&quot;color: rgb(51, 51, 51); font-size: 11px;&quot;&gt;&lt;b style=&quot;&quot;&gt;Track Tactical Improvement&lt;/b&gt;&lt;/font&gt;&lt;/h5&gt;" style="text;html=1;align=center;verticalAlign=middle;whiteSpace=wrap;rounded=0;fontSize=11;" parent="1" vertex="1">
          <mxGeometry x="994" y="2066" width="101" height="24" as="geometry" />
        </mxCell>
        <mxCell id="DvH0oKD77Us_AZ8ZDjh3-28" style="edgeStyle=orthogonalEdgeStyle;curved=1;rounded=0;orthogonalLoop=1;jettySize=auto;html=1;exitX=1;exitY=0.5;exitDx=0;exitDy=0;entryX=0;entryY=0.75;entryDx=0;entryDy=0;" parent="1" source="Pjm44x9L5e39kdIj_LCA-88" target="DvH0oKD77Us_AZ8ZDjh3-26" edge="1">
          <mxGeometry relative="1" as="geometry">
            <mxPoint x="929" y="1756" as="sourcePoint" />
            <mxPoint x="1078" y="2109" as="targetPoint" />
          </mxGeometry>
        </mxCell>
        <mxCell id="DvH0oKD77Us_AZ8ZDjh3-29" value="" style="rounded=0;whiteSpace=wrap;html=1;fillColor=none;strokeColor=light-dark(#99004d, #008F00);strokeWidth=3;" parent="1" vertex="1">
          <mxGeometry x="1261" y="1617" width="144" height="51" as="geometry" />
        </mxCell>
        <mxCell id="DvH0oKD77Us_AZ8ZDjh3-30" value="" style="group;strokeColor=light-dark(#99004d, #008F00);" parent="1" vertex="1" connectable="0">
          <mxGeometry x="1261" y="1617" width="144" height="51" as="geometry" />
        </mxCell>
        <mxCell id="DvH0oKD77Us_AZ8ZDjh3-31" value="&lt;h4&gt;&lt;font style=&quot;color: rgb(51, 51, 51); font-size: 11px;&quot;&gt;&lt;b&gt;Users&#39; Feedback to CSAT to $ Converter&lt;/b&gt;&lt;/font&gt;&lt;/h4&gt;" style="text;html=1;align=center;verticalAlign=middle;whiteSpace=wrap;rounded=0;" parent="DvH0oKD77Us_AZ8ZDjh3-30" vertex="1">
          <mxGeometry x="15.5" y="6.841463414634147" width="113" height="37.3170731707317" as="geometry" />
        </mxCell>
        <mxCell id="DvH0oKD77Us_AZ8ZDjh3-33" value="" style="rounded=0;whiteSpace=wrap;html=1;fillColor=none;strokeColor=light-dark(#99004D,#008F00);strokeWidth=3;" parent="1" vertex="1">
          <mxGeometry x="1265" y="1747" width="144" height="51" as="geometry" />
        </mxCell>
        <mxCell id="DvH0oKD77Us_AZ8ZDjh3-34" value="" style="group" parent="1" vertex="1" connectable="0">
          <mxGeometry x="1265" y="1747" width="144" height="51" as="geometry" />
        </mxCell>
        <mxCell id="DvH0oKD77Us_AZ8ZDjh3-35" value="&lt;h4&gt;&lt;font style=&quot;color: rgb(51, 51, 51); font-size: 11px;&quot;&gt;&lt;b&gt;Hours Saving to $ benefit converter&lt;/b&gt;&lt;/font&gt;&lt;/h4&gt;" style="text;html=1;align=center;verticalAlign=middle;whiteSpace=wrap;rounded=0;" parent="DvH0oKD77Us_AZ8ZDjh3-34" vertex="1">
          <mxGeometry x="15.5" y="6.841463414634147" width="113" height="37.3170731707317" as="geometry" />
        </mxCell>
        <mxCell id="DvH0oKD77Us_AZ8ZDjh3-36" value="" style="rounded=0;whiteSpace=wrap;html=1;fillColor=none;strokeColor=light-dark(#99004D,#008F00);strokeWidth=3;" parent="1" vertex="1">
          <mxGeometry x="1265" y="1875.5" width="144" height="51" as="geometry" />
        </mxCell>
        <mxCell id="DvH0oKD77Us_AZ8ZDjh3-37" value="" style="group" parent="1" vertex="1" connectable="0">
          <mxGeometry x="1265" y="1875.5" width="144" height="51" as="geometry" />
        </mxCell>
        <mxCell id="DvH0oKD77Us_AZ8ZDjh3-38" value="&lt;h5&gt;&lt;font color=&quot;#333333&quot;&gt;&lt;span style=&quot;font-size: 11px;&quot;&gt;&lt;b&gt;Net $ benefits from IP rights&amp;nbsp;&lt;/b&gt;&lt;/span&gt;&lt;/font&gt;&lt;/h5&gt;" style="text;html=1;align=center;verticalAlign=middle;whiteSpace=wrap;rounded=0;" parent="DvH0oKD77Us_AZ8ZDjh3-37" vertex="1">
          <mxGeometry x="15.5" y="6.841463414634147" width="113" height="37.3170731707317" as="geometry" />
        </mxCell>
        <mxCell id="DvH0oKD77Us_AZ8ZDjh3-39" value="" style="rounded=0;whiteSpace=wrap;html=1;fillColor=none;strokeColor=light-dark(#99004D,#008F00);strokeWidth=3;" parent="1" vertex="1">
          <mxGeometry x="1265" y="1999" width="144" height="51" as="geometry" />
        </mxCell>
        <mxCell id="DvH0oKD77Us_AZ8ZDjh3-40" value="" style="group" parent="1" vertex="1" connectable="0">
          <mxGeometry x="1265" y="1999" width="144" height="51" as="geometry" />
        </mxCell>
        <mxCell id="DvH0oKD77Us_AZ8ZDjh3-41" value="&lt;font color=&quot;#333333&quot;&gt;&lt;span style=&quot;font-size: 11px;&quot;&gt;&lt;b&gt;$ Benefits from Cost Savings &amp;amp; Rev. uplift&lt;/b&gt;&lt;/span&gt;&lt;/font&gt;" style="text;html=1;align=center;verticalAlign=middle;whiteSpace=wrap;rounded=0;" parent="DvH0oKD77Us_AZ8ZDjh3-40" vertex="1">
          <mxGeometry x="15.5" y="6.841463414634147" width="113" height="37.3170731707317" as="geometry" />
        </mxCell>
        <mxCell id="DvH0oKD77Us_AZ8ZDjh3-42" value="" style="verticalLabelPosition=bottom;verticalAlign=top;html=1;shape=mxgraph.flowchart.summing_function;fillColor=none;strokeColor=#70BB26;strokeWidth=3;" parent="1" vertex="1">
          <mxGeometry x="1518" y="1770" width="70" height="70" as="geometry" />
        </mxCell>
        <mxCell id="DvH0oKD77Us_AZ8ZDjh3-43" style="edgeStyle=orthogonalEdgeStyle;curved=1;rounded=0;orthogonalLoop=1;jettySize=auto;html=1;exitX=1;exitY=0.5;exitDx=0;exitDy=0;entryX=0.5;entryY=0;entryDx=0;entryDy=0;entryPerimeter=0;" parent="1" source="DvH0oKD77Us_AZ8ZDjh3-29" target="DvH0oKD77Us_AZ8ZDjh3-42" edge="1">
          <mxGeometry relative="1" as="geometry">
            <mxPoint x="1471" y="1637" as="sourcePoint" />
            <mxPoint x="1586" y="1762" as="targetPoint" />
          </mxGeometry>
        </mxCell>
        <mxCell id="DvH0oKD77Us_AZ8ZDjh3-44" style="edgeStyle=orthogonalEdgeStyle;curved=1;rounded=0;orthogonalLoop=1;jettySize=auto;html=1;exitX=1;exitY=0.5;exitDx=0;exitDy=0;entryX=0.5;entryY=1;entryDx=0;entryDy=0;entryPerimeter=0;" parent="1" source="DvH0oKD77Us_AZ8ZDjh3-39" target="DvH0oKD77Us_AZ8ZDjh3-42" edge="1">
          <mxGeometry relative="1" as="geometry">
            <mxPoint x="1493" y="1942" as="sourcePoint" />
            <mxPoint x="1641" y="2069" as="targetPoint" />
          </mxGeometry>
        </mxCell>
        <mxCell id="DvH0oKD77Us_AZ8ZDjh3-45" style="edgeStyle=orthogonalEdgeStyle;curved=1;rounded=0;orthogonalLoop=1;jettySize=auto;html=1;exitX=1;exitY=0.5;exitDx=0;exitDy=0;entryX=0;entryY=0.5;entryDx=0;entryDy=0;entryPerimeter=0;" parent="1" source="DvH0oKD77Us_AZ8ZDjh3-33" target="DvH0oKD77Us_AZ8ZDjh3-42" edge="1">
          <mxGeometry relative="1" as="geometry">
            <mxPoint x="1482" y="1649" as="sourcePoint" />
            <mxPoint x="1630" y="1776" as="targetPoint" />
          </mxGeometry>
        </mxCell>
        <mxCell id="DvH0oKD77Us_AZ8ZDjh3-46" style="edgeStyle=orthogonalEdgeStyle;curved=1;rounded=0;orthogonalLoop=1;jettySize=auto;html=1;exitX=1;exitY=0.5;exitDx=0;exitDy=0;entryX=0;entryY=0.5;entryDx=0;entryDy=0;entryPerimeter=0;" parent="1" source="DvH0oKD77Us_AZ8ZDjh3-36" target="DvH0oKD77Us_AZ8ZDjh3-42" edge="1">
          <mxGeometry relative="1" as="geometry">
            <mxPoint x="1478" y="1798" as="sourcePoint" />
            <mxPoint x="1452" y="1840" as="targetPoint" />
          </mxGeometry>
        </mxCell>
        <mxCell id="DvH0oKD77Us_AZ8ZDjh3-47" value="&lt;h2&gt;&lt;b&gt;&lt;font style=&quot;font-size: 15px;&quot;&gt;Final GenAI Benefits&lt;/font&gt;&lt;/b&gt;&lt;/h2&gt;" style="text;html=1;align=center;verticalAlign=middle;whiteSpace=wrap;rounded=0;fontSize=14;" parent="1" vertex="1">
          <mxGeometry x="1596" y="1795" width="118" height="30" as="geometry" />
        </mxCell>
        <mxCell id="DvH0oKD77Us_AZ8ZDjh3-48" style="edgeStyle=orthogonalEdgeStyle;curved=1;rounded=0;orthogonalLoop=1;jettySize=auto;html=1;exitX=1;exitY=0.5;exitDx=0;exitDy=0;entryX=0;entryY=0.5;entryDx=0;entryDy=0;" parent="1" source="Pjm44x9L5e39kdIj_LCA-101" target="DvH0oKD77Us_AZ8ZDjh3-33" edge="1">
          <mxGeometry relative="1" as="geometry">
            <mxPoint x="1166" y="1728" as="sourcePoint" />
            <mxPoint x="1320" y="1738" as="targetPoint" />
          </mxGeometry>
        </mxCell>
        <mxCell id="DvH0oKD77Us_AZ8ZDjh3-50" style="edgeStyle=orthogonalEdgeStyle;curved=1;rounded=0;orthogonalLoop=1;jettySize=auto;html=1;exitX=1;exitY=0.5;exitDx=0;exitDy=0;entryX=0;entryY=0.5;entryDx=0;entryDy=0;" parent="1" source="Pjm44x9L5e39kdIj_LCA-104" target="DvH0oKD77Us_AZ8ZDjh3-33" edge="1">
          <mxGeometry relative="1" as="geometry">
            <mxPoint x="1154" y="1810" as="sourcePoint" />
            <mxPoint x="1323" y="1898" as="targetPoint" />
          </mxGeometry>
        </mxCell>
        <mxCell id="DvH0oKD77Us_AZ8ZDjh3-51" style="edgeStyle=orthogonalEdgeStyle;curved=1;rounded=0;orthogonalLoop=1;jettySize=auto;html=1;exitX=1;exitY=0.5;exitDx=0;exitDy=0;entryX=0;entryY=0.5;entryDx=0;entryDy=0;" parent="1" source="DvH0oKD77Us_AZ8ZDjh3-2" target="DvH0oKD77Us_AZ8ZDjh3-29" edge="1">
          <mxGeometry relative="1" as="geometry">
            <mxPoint x="1130" y="1846" as="sourcePoint" />
            <mxPoint x="1284" y="1884" as="targetPoint" />
          </mxGeometry>
        </mxCell>
        <mxCell id="DvH0oKD77Us_AZ8ZDjh3-52" style="edgeStyle=orthogonalEdgeStyle;curved=1;rounded=0;orthogonalLoop=1;jettySize=auto;html=1;exitX=1;exitY=0.5;exitDx=0;exitDy=0;entryX=0;entryY=0.5;entryDx=0;entryDy=0;" parent="1" source="DvH0oKD77Us_AZ8ZDjh3-2" target="DvH0oKD77Us_AZ8ZDjh3-33" edge="1">
          <mxGeometry relative="1" as="geometry">
            <mxPoint x="1243" y="2031" as="sourcePoint" />
            <mxPoint x="1259" y="1805" as="targetPoint" />
          </mxGeometry>
        </mxCell>
        <mxCell id="DvH0oKD77Us_AZ8ZDjh3-53" style="edgeStyle=orthogonalEdgeStyle;curved=1;rounded=0;orthogonalLoop=1;jettySize=auto;html=1;exitX=1;exitY=0.5;exitDx=0;exitDy=0;entryX=0;entryY=0.5;entryDx=0;entryDy=0;" parent="1" source="DvH0oKD77Us_AZ8ZDjh3-16" target="DvH0oKD77Us_AZ8ZDjh3-39" edge="1">
          <mxGeometry relative="1" as="geometry">
            <mxPoint x="1127" y="1867.5" as="sourcePoint" />
            <mxPoint x="1286" y="1855.5" as="targetPoint" />
          </mxGeometry>
        </mxCell>
        <mxCell id="DvH0oKD77Us_AZ8ZDjh3-54" style="edgeStyle=orthogonalEdgeStyle;curved=1;rounded=0;orthogonalLoop=1;jettySize=auto;html=1;entryX=0;entryY=0.5;entryDx=0;entryDy=0;exitX=1;exitY=0.5;exitDx=0;exitDy=0;" parent="1" source="DvH0oKD77Us_AZ8ZDjh3-7" target="DvH0oKD77Us_AZ8ZDjh3-29" edge="1">
          <mxGeometry relative="1" as="geometry">
            <mxPoint x="1106" y="1946" as="sourcePoint" />
            <mxPoint x="1340" y="2100" as="targetPoint" />
          </mxGeometry>
        </mxCell>
        <mxCell id="DvH0oKD77Us_AZ8ZDjh3-55" style="edgeStyle=orthogonalEdgeStyle;curved=1;rounded=0;orthogonalLoop=1;jettySize=auto;html=1;exitX=1;exitY=0.5;exitDx=0;exitDy=0;entryX=0;entryY=0.5;entryDx=0;entryDy=0;" parent="1" source="DvH0oKD77Us_AZ8ZDjh3-7" target="DvH0oKD77Us_AZ8ZDjh3-33" edge="1">
          <mxGeometry relative="1" as="geometry">
            <mxPoint x="1166" y="1932" as="sourcePoint" />
            <mxPoint x="1339" y="2127" as="targetPoint" />
          </mxGeometry>
        </mxCell>
        <mxCell id="DvH0oKD77Us_AZ8ZDjh3-56" style="edgeStyle=orthogonalEdgeStyle;curved=1;rounded=0;orthogonalLoop=1;jettySize=auto;html=1;exitX=1;exitY=0.5;exitDx=0;exitDy=0;entryX=0;entryY=0.5;entryDx=0;entryDy=0;" parent="1" source="DvH0oKD77Us_AZ8ZDjh3-9" target="DvH0oKD77Us_AZ8ZDjh3-39" edge="1">
          <mxGeometry relative="1" as="geometry">
            <mxPoint x="1107" y="1945" as="sourcePoint" />
            <mxPoint x="1306" y="2059" as="targetPoint" />
          </mxGeometry>
        </mxCell>
        <mxCell id="DvH0oKD77Us_AZ8ZDjh3-57" style="edgeStyle=orthogonalEdgeStyle;curved=1;rounded=0;orthogonalLoop=1;jettySize=auto;html=1;exitX=1;exitY=0.5;exitDx=0;exitDy=0;entryX=0;entryY=0.5;entryDx=0;entryDy=0;" parent="1" source="DvH0oKD77Us_AZ8ZDjh3-27" target="DvH0oKD77Us_AZ8ZDjh3-36" edge="1">
          <mxGeometry relative="1" as="geometry">
            <mxPoint x="1127" y="1994" as="sourcePoint" />
            <mxPoint x="1303" y="2058" as="targetPoint" />
          </mxGeometry>
        </mxCell>
        <mxCell id="DvH0oKD77Us_AZ8ZDjh3-58" style="edgeStyle=orthogonalEdgeStyle;curved=1;rounded=0;orthogonalLoop=1;jettySize=auto;html=1;exitX=1;exitY=0.5;exitDx=0;exitDy=0;entryX=0;entryY=0.5;entryDx=0;entryDy=0;" parent="1" source="DvH0oKD77Us_AZ8ZDjh3-27" target="DvH0oKD77Us_AZ8ZDjh3-33" edge="1">
          <mxGeometry relative="1" as="geometry">
            <mxPoint x="1140" y="2134" as="sourcePoint" />
            <mxPoint x="1307" y="1973" as="targetPoint" />
          </mxGeometry>
        </mxCell>
        <mxCell id="DvH0oKD77Us_AZ8ZDjh3-60" style="edgeStyle=orthogonalEdgeStyle;curved=1;rounded=0;orthogonalLoop=1;jettySize=auto;html=1;exitX=1;exitY=0.5;exitDx=0;exitDy=0;entryX=0;entryY=0.5;entryDx=0;entryDy=0;" parent="1" source="DvH0oKD77Us_AZ8ZDjh3-11" target="DvH0oKD77Us_AZ8ZDjh3-39" edge="1">
          <mxGeometry relative="1" as="geometry">
            <mxPoint x="1141" y="1991" as="sourcePoint" />
            <mxPoint x="1260" y="2055" as="targetPoint" />
          </mxGeometry>
        </mxCell>
        <mxCell id="DvH0oKD77Us_AZ8ZDjh3-61" value="" style="html=1;shadow=0;dashed=0;align=center;verticalAlign=middle;shape=mxgraph.arrows2.arrow;dy=0.51;dx=26.29;notch=0;fillColor=#66B2FF;strokeColor=none;" parent="1" vertex="1">
          <mxGeometry x="320" y="1718" width="46" height="52" as="geometry" />
        </mxCell>
        <mxCell id="DvH0oKD77Us_AZ8ZDjh3-63" value="&lt;h1&gt;&lt;b&gt;&lt;font style=&quot;font-size: 28px;&quot;&gt;&lt;u&gt;GenAI Benefit Measurement Framework&lt;/u&gt;&lt;/font&gt;&lt;/b&gt;&lt;/h1&gt;" style="text;html=1;align=center;verticalAlign=middle;whiteSpace=wrap;rounded=0;fontSize=17;" parent="1" vertex="1">
          <mxGeometry x="711" y="1477" width="658" height="30" as="geometry" />
        </mxCell>
      </root>
    </mxGraphModel>
  </diagram>
</mxfile>
